<svg xmlns="http://www.w3.org/2000/svg" width="68" height="68" viewBox="0 0 68 68">
    <g data-name="그룹 52451" transform="translate(-1077 -892)">
        <rect data-name="사각형 3441" width="68" height="68" rx="20" transform="translate(1077 892)" style="fill:#f7f7f7"/>
        <g data-name="그룹 52450">
            <path data-name="패스 42669" d="M1124.001 920.53a7.534 7.534 0 0 0-7.524-7.527h-13.639a2.676 2.676 0 0 0-2.673 2.671v5.353a1.167 1.167 0 0 0 2.333 0v-5.353a.338.338 0 0 1 .339-.337h13.639a5.191 5.191 0 0 1 3.27 9.223 1.173 1.173 0 0 0-.43.907 1.158 1.158 0 0 0 .433.9 5.222 5.222 0 0 1-2.941 9.254h-13.97a.341.341 0 0 1-.339-.34v-1.427a1.167 1.167 0 1 0-2.333 0v1.476a2.638 2.638 0 0 0 2.672 2.629c4.175 0 13.978-.005 13.988-.005a7.629 7.629 0 0 0 7.175-7.556 7.5 7.5 0 0 0-1.843-4.937 7.5 7.5 0 0 0 1.843-4.931z"/>
            <path data-name="패스 42669 - 윤곽선" d="M3727.883 681.42h13.639a7.877 7.877 0 0 1 6.137 12.811 7.855 7.855 0 0 1-.456 10.372 7.961 7.961 0 0 1-5.311 2.47h-.085c-1.661 0-10.137.005-13.923.005a3.031 3.031 0 0 1-2.133-.861 2.937 2.937 0 0 1-.89-2.118v-1.471a1.517 1.517 0 1 1 3.033 0v1.417h13.947a4.872 4.872 0 0 0 2.732-8.633 1.5 1.5 0 0 1-.562-1.176 1.519 1.519 0 0 1 .559-1.178 4.841 4.841 0 0 0-3.048-8.6h-13.628v5.341a1.517 1.517 0 0 1-3.034 0v-5.353a3.025 3.025 0 0 1 3.023-3.026zm13.978 24.954a7.247 7.247 0 0 0 6.835-7.206 7.168 7.168 0 0 0-1.757-4.707l-.2-.23.2-.23a7.177 7.177 0 0 0-5.417-11.882h-13.639a2.324 2.324 0 0 0-2.323 2.321v5.353a.817.817 0 1 0 1.633 0v-5.353a.689.689 0 0 1 .689-.687h13.639a5.541 5.541 0 0 1 3.49 9.845.82.82 0 0 0-.3.635.806.806 0 0 0 .3.632 5.572 5.572 0 0 1-3.138 9.876h-13.991a.69.69 0 0 1-.689-.69v-1.427a.816.816 0 1 0-1.633 0v1.476a2.277 2.277 0 0 0 2.322 2.279c3.786 0 12.262 0 13.923-.005z" transform="translate(-2625.045 231.23)" style="fill:#f7f7f7"/>
            <path data-name="패스 42670" d="M3692.628 901.854h-16.754a1.168 1.168 0 0 1 0-2.333h16.754a1.168 1.168 0 0 1 0 2.333z" transform="translate(-2577.204 24.776)" style="fill:#5055b1"/>
            <path data-name="패스 42670 - 윤곽선" d="M3692.628 902.1h-16.754a1.417 1.417 0 0 1 0-2.833h16.754a1.417 1.417 0 0 1 0 2.833zm-16.754-2.333a.918.918 0 0 0 0 1.833h16.754a.918.918 0 0 0 0-1.833z" transform="translate(-2577.204 24.776)" style="fill:#f7f7f7"/>
            <path data-name="패스 42671" d="M3616.343 977.744h-8.776a1.167 1.167 0 1 1 0-2.333h8.776a1.167 1.167 0 0 1 0 2.333z" transform="translate(-2512.4 -47.176)" style="fill:#5055b1"/>
            <path data-name="패스 42671 - 윤곽선" d="M3616.343 977.994h-8.776a1.417 1.417 0 1 1 0-2.833h8.776a1.417 1.417 0 0 1 0 2.833zm-8.776-2.333a.917.917 0 1 0 0 1.833h8.776a.917.917 0 0 0 0-1.833z" transform="translate(-2512.4 -47.176)" style="fill:#f7f7f7"/>
        </g>
    </g>
</svg>
